<svg width="19" height="19" viewBox="0 0 19 19" fill="none" xmlns="http://www.w3.org/2000/svg">
<path d="M7.29 19.0002C6.46382 18.9962 5.64668 18.8279 4.88614 18.5052C4.1256 18.1824 3.43686 17.7116 2.86 17.1202C2.28746 16.5775 1.82755 15.9273 1.50658 15.2067C1.18561 14.4861 1.00987 13.7093 0.98944 12.9208C0.969006 12.1322 1.10427 11.3474 1.38749 10.6111C1.67071 9.87488 2.09633 9.20172 2.64 8.63016L10 1.20016C10.393 0.807833 10.8615 0.499231 11.3771 0.292984C11.8927 0.0867373 12.4448 -0.0128771 13 0.000155444C13.5947 0.00218059 14.1831 0.122594 14.7307 0.354375C15.2784 0.586155 15.7745 0.924662 16.19 1.35016C17.017 2.14639 17.4966 3.23667 17.5247 4.38433C17.5527 5.53199 17.1271 6.64442 16.34 7.48015L8.94 14.9102C8.70298 15.1488 8.42093 15.3379 8.11022 15.4667C7.79951 15.5954 7.46632 15.6612 7.13 15.6602C6.76667 15.6606 6.40693 15.5883 6.07201 15.4475C5.7371 15.3067 5.43379 15.1001 5.18 14.8402C4.67272 14.349 4.37977 13.6775 4.36479 12.9716C4.34981 12.2657 4.61402 11.5824 5.1 11.0702L11.93 4.21016C12.1244 4.08106 12.3578 4.024 12.5898 4.04887C12.8218 4.07374 13.0378 4.17896 13.2004 4.34632C13.3631 4.51367 13.462 4.73263 13.4802 4.96526C13.4984 5.1979 13.4346 5.42957 13.3 5.62016L6.47 12.4802C6.3561 12.6174 6.30067 12.7938 6.31563 12.9715C6.3306 13.1492 6.41476 13.3139 6.55 13.4302C6.69071 13.5718 6.8804 13.6542 7.08 13.6602C7.15393 13.6612 7.22734 13.6476 7.296 13.6202C7.36465 13.5927 7.42719 13.5519 7.48 13.5002L14.87 6.07016C15.2848 5.60934 15.5016 5.00379 15.4735 4.38441C15.4455 3.76502 15.1748 3.18157 14.72 2.76016C14.2976 2.3216 13.7231 2.06162 13.1149 2.03371C12.5066 2.00581 11.9108 2.21211 11.45 2.61016L4.06 10.0002C3.70064 10.3861 3.42116 10.8394 3.23762 11.3337C3.05409 11.8281 2.97013 12.354 2.99058 12.8809C3.01102 13.4079 3.13547 13.9256 3.35676 14.4043C3.57805 14.883 3.89181 15.3132 4.28 15.6702C4.66927 16.0737 5.13506 16.3956 5.65016 16.6171C6.16525 16.8386 6.71932 16.9552 7.28 16.9602C7.76341 16.9641 8.24285 16.8725 8.69075 16.6905C9.13865 16.5086 9.54621 16.24 9.89 15.9002L17.28 8.47016C17.3726 8.37692 17.4826 8.30283 17.6038 8.25212C17.725 8.2014 17.8551 8.17506 17.9865 8.1746C18.1179 8.17414 18.2481 8.19956 18.3696 8.24941C18.4912 8.29926 18.6018 8.37257 18.695 8.46516C18.7882 8.55774 18.8623 8.66778 18.913 8.78899C18.9637 8.91021 18.9901 9.04023 18.9906 9.17162C18.991 9.30302 18.9656 9.43322 18.9157 9.55479C18.8659 9.67636 18.7926 9.78692 18.7 9.88016L11.31 17.3102C10.7853 17.8441 10.1597 18.2685 9.46961 18.5586C8.7795 18.8487 8.03861 18.9988 7.29 19.0002Z" fill="#0059F7"/>
</svg>
