<svg width="21" height="20" viewBox="0 0 21 20" fill="none" xmlns="http://www.w3.org/2000/svg">
<path d="M13.8334 1.66666H7.16675C4.40925 1.66666 2.16675 3.90916 2.16675 6.66666V16.6667C2.16675 16.8877 2.25455 17.0996 2.41083 17.2559C2.56711 17.4122 2.77907 17.5 3.00008 17.5H13.8334C16.5909 17.5 18.8334 15.2575 18.8334 12.5V6.66666C18.8334 3.90916 16.5909 1.66666 13.8334 1.66666ZM17.1667 12.5C17.1667 14.3383 15.6717 15.8333 13.8334 15.8333H3.83341V6.66666C3.83341 4.82832 5.32841 3.33332 7.16675 3.33332H13.8334C15.6717 3.33332 17.1667 4.82832 17.1667 6.66666V12.5Z" fill="#0059F7"/>
<path d="M8.41675 10.8333C9.1071 10.8333 9.66675 10.2737 9.66675 9.58334C9.66675 8.89299 9.1071 8.33334 8.41675 8.33334C7.72639 8.33334 7.16675 8.89299 7.16675 9.58334C7.16675 10.2737 7.72639 10.8333 8.41675 10.8333Z" fill="#0059F7"/>
<path d="M12.5833 10.8333C13.2736 10.8333 13.8333 10.2737 13.8333 9.58334C13.8333 8.89299 13.2736 8.33334 12.5833 8.33334C11.8929 8.33334 11.3333 8.89299 11.3333 9.58334C11.3333 10.2737 11.8929 10.8333 12.5833 10.8333Z" fill="#0059F7"/>
</svg>
